<?xml version="1.0" encoding="UTF-8"?>
<svg width="20px" height="20px" viewBox="0 0 20 20" version="1.1" xmlns="http://www.w3.org/2000/svg" xmlns:xlink="http://www.w3.org/1999/xlink">
    <!-- Generator: Sketch 48.2 (47327) - http://www.bohemiancoding.com/sketch -->
    <title>group</title>
    <desc>Created with Sketch.</desc>
    <defs></defs>
    <g id="DevTest" stroke="none" stroke-width="1" fill="none" fill-rule="evenodd" transform="translate(-751.000000, -31.000000)">
        <g id="Group-3" transform="translate(321.000000, 8.000000)" fill="#001D5D" fill-rule="nonzero">
            <g id="artist-copy-3" transform="translate(430.000000, 23.000000)">
                <g id="group">
                    <path d="M5.6,16.4 C5.59969155,16.620786 5.42078601,16.7996915 5.2,16.8 L2.8,16.8 C2.57921399,16.7996915 2.40030845,16.620786 2.4,16.4 L2.4,12.8 C2.4,12.3581722 2.0418278,12 1.6,12 L1.2,12 C0.979213992,11.9996915 0.800308453,11.820786 0.8,11.6 L0.8,9.6 C0.797724481,8.2043473 1.70165825,6.96874482 3.03249646,6.54836251 C4.36333467,6.12798021 5.81302548,6.62012484 6.61288,7.76384 C5.96340157,8.48861634 5.60292669,9.42680197 5.6,10.4 L5.6,16.4 Z" id="Shape" fill-opacity="0.25"></path>
                    <path d="M18.4,11.6 C18.3996915,11.820786 18.220786,11.9996915 18,12 L17.6,12 C17.1581722,12 16.8,12.3581722 16.8,12.8 L16.8,16.4 C16.7996915,16.620786 16.620786,16.7996915 16.4,16.8 L14,16.8 C13.779214,16.7996915 13.6003085,16.620786 13.6,16.4 L13.6,10.4 C13.5970733,9.42680197 13.2365984,8.48861634 12.58712,7.76384 C13.3869745,6.62012484 14.8366653,6.12798021 16.1675035,6.54836251 C17.4983417,6.96874482 18.4022755,8.2043473 18.4,9.6 L18.4,11.6 Z" id="Shape" fill-opacity="0.25"></path>
                    <path d="M9.6,5.6 C10.9254834,5.6 12,4.5254834 12,3.2 C12,1.8745166 10.9254834,0.8 9.6,0.8 C8.2745166,0.8 7.2,1.8745166 7.2,3.2 C7.2,4.5254834 8.2745166,5.6 9.6,5.6 Z M9.6,1.6 C10.4836556,1.6 11.2,2.3163444 11.2,3.2 C11.2,4.0836556 10.4836556,4.8 9.6,4.8 C8.7163444,4.8 8,4.0836556 8,3.2 C8.00101397,2.31676474 8.71676474,1.60101397 9.6,1.6 Z" id="Shape"></path>
                    <path d="M15.2,4.8 C16.5254834,4.8 17.6,3.7254834 17.6,2.4 C17.6,1.0745166 16.5254834,8.11624501e-17 15.2,0 C13.8745166,-8.11624501e-17 12.8,1.0745166 12.8,2.4 C12.8,3.7254834 13.8745166,4.8 15.2,4.8 Z M15.2,0.8 C16.0836556,0.8 16.8,1.5163444 16.8,2.4 C16.8,3.2836556 16.0836556,4 15.2,4 C14.3163444,4 13.6,3.2836556 13.6,2.4 C13.601014,1.51676474 14.3167647,0.801013972 15.2,0.8 Z" id="Shape"></path>
                    <path d="M4,4.8 C5.3254834,4.8 6.4,3.7254834 6.4,2.4 C6.4,1.0745166 5.3254834,8.11624501e-17 4,0 C2.6745166,-8.11624501e-17 1.6,1.0745166 1.6,2.4 C1.6,3.7254834 2.6745166,4.8 4,4.8 Z M4,0.8 C4.8836556,0.8 5.6,1.5163444 5.6,2.4 C5.6,3.2836556 4.8836556,4 4,4 C3.1163444,4 2.4,3.2836556 2.4,2.4 C2.40101397,1.51676474 3.11676474,0.801013972 4,0.8 Z" id="Shape"></path>
                    <path d="M15.2,5.6 C13.9375006,5.60227941 12.7508956,6.20318072 12.00192,7.21952 L12.0028,7.22032 C10.5875174,6.12630601 8.61192261,6.12630601 7.19664,7.22032 L7.198,7.21912 C6.17357409,5.83180366 4.37363331,5.25988908 2.73632048,5.80146248 C1.09900764,6.34303589 -0.00488491485,7.87545043 -7.10545446e-16,9.6 L-7.10545446e-16,11.6 C-6.29379361e-16,12.2627417 0.5372583,12.8 1.2,12.8 L1.6,12.8 L1.6,16.4 C1.6,17.0627417 2.1372583,17.6 2.8,17.6 L5.2,17.6 C5.8627417,17.6 6.4,17.0627417 6.4,16.4 L6.4,14.32656 C6.52811882,14.3738573 6.6634358,14.3987015 6.8,14.4 L7.2,14.4 L7.2,18.8 C7.2,19.4627417 7.7372583,20 8.4,20 L10.8,20 C11.4627417,20 12,19.4627417 12,18.8 L12,14.4 L12.4,14.4 C12.5365642,14.3987015 12.6718812,14.3738573 12.8,14.32656 L12.8,16.4 C12.8,17.0627417 13.3372583,17.6 14,17.6 L16.4,17.6 C17.0627417,17.6 17.6,17.0627417 17.6,16.4 L17.6,12.8 L18,12.8 C18.6627417,12.8 19.2,12.2627417 19.2,11.6 L19.2,9.6 C19.2,8.53913404 18.7785726,7.52171839 18.0284271,6.77157288 C17.2782816,6.02142736 16.260866,5.6 15.2,5.6 Z M5.6,16.4 C5.59969155,16.620786 5.42078601,16.7996915 5.2,16.8 L2.8,16.8 C2.57921399,16.7996915 2.40030845,16.620786 2.4,16.4 L2.4,12.8 C2.4,12.3581722 2.0418278,12 1.6,12 L1.2,12 C0.979213992,11.9996915 0.800308453,11.820786 0.8,11.6 L0.8,9.6 C0.797724481,8.2043473 1.70165825,6.96874482 3.03249646,6.54836251 C4.36333467,6.12798021 5.81302548,6.62012484 6.61288,7.76384 C5.96340157,8.48861634 5.60292669,9.42680197 5.6,10.4 L5.6,16.4 Z M12.4,13.6 L12,13.6 C11.5581722,13.6 11.2,13.9581722 11.2,14.4 L11.2,18.8 C11.1997355,19.0208043 11.0208043,19.1997355 10.8,19.2 L8.4,19.2 C8.17919575,19.1997355 8.00026449,19.0208043 8,18.8 L8,14.4 C8,13.9581722 7.6418278,13.6 7.2,13.6 L6.8,13.6 C6.57919575,13.5997355 6.40026449,13.4208043 6.4,13.2 L6.4,10.4 C6.4,8.6326888 7.8326888,7.2 9.6,7.2 C11.3673112,7.2 12.8,8.6326888 12.8,10.4 L12.8,13.2 C12.7997355,13.4208043 12.6208043,13.5997355 12.4,13.6 Z M18.4,11.6 C18.3996915,11.820786 18.220786,11.9996915 18,12 L17.6,12 C17.1581722,12 16.8,12.3581722 16.8,12.8 L16.8,16.4 C16.7996915,16.620786 16.620786,16.7996915 16.4,16.8 L14,16.8 C13.779214,16.7996915 13.6003085,16.620786 13.6,16.4 L13.6,10.4 C13.5970733,9.42680197 13.2365984,8.48861634 12.58712,7.76384 C13.3869745,6.62012484 14.8366653,6.12798021 16.1675035,6.54836251 C17.4983417,6.96874482 18.4022755,8.2043473 18.4,9.6 L18.4,11.6 Z" id="Shape"></path>
                </g>
            </g>
        </g>
    </g>
</svg>