<?xml version="1.0" encoding="UTF-8"?>
<svg width="23px" height="20px" viewBox="0 0 23 20" version="1.1" xmlns="http://www.w3.org/2000/svg" xmlns:xlink="http://www.w3.org/1999/xlink">
    <!-- Generator: Sketch 48.2 (47327) - http://www.bohemiancoding.com/sketch -->
    <title>home-a</title>
    <desc>Created with Sketch.</desc>
    <defs></defs>
    <g id="DevTest" stroke="none" stroke-width="1" fill="none" fill-rule="evenodd" transform="translate(-321.000000, -29.000000)">
        <g id="Group-3" transform="translate(321.000000, 8.000000)" fill="#001D5D" fill-rule="nonzero">
            <g id="home-copy" transform="translate(0.000000, 21.000000)">
                <g id="home-a">
                    <path d="M16.3936364,5.68181818 L16.3936364,15.9090909 C16.3936364,16.1601294 16.1901294,16.3636364 15.9390909,16.3636364 L3.63636364,16.3636364 L3.63636364,18.6363636 C3.63636364,18.8874022 3.83987057,19.0909091 4.09090909,19.0909091 L18.6363636,19.0909091 C18.8874022,19.0909091 19.0909091,18.8874022 19.0909091,18.6363636 L19.0909091,8.18181818 L19.1208182,8.18181818 L16.3936364,5.68181818 Z" id="Shape" fill-opacity="0.25"></path>
                    <path d="M22.5798182,10.119 L11.6707273,0.119 C11.4967674,-0.0399114175 11.2303235,-0.0399114175 11.0563636,0.119 L0.147272727,10.119 C-0.0378179755,10.2886518 -0.0503336518,10.5762275 0.119318182,10.7613182 C0.288970015,10.9464089 0.576545661,10.9589246 0.761636364,10.7892727 L2.72727273,8.98745455 L2.72727273,18.6363636 C2.72727273,19.3894792 3.33779352,20 4.09090909,20 L18.6363636,20 C19.3894792,20 20,19.3894792 20,18.6363636 L20,8.98790909 L21.9654545,10.7891818 C22.1505452,10.9588337 22.4381209,10.946318 22.6077727,10.7612273 C22.7774246,10.5761366 22.7649089,10.2885609 22.5798182,10.1189091 L22.5798182,10.119 Z M9.09090909,19.0909091 L9.09090909,13.1818182 C9.09090909,12.9307797 9.29441602,12.7272727 9.54545455,12.7272727 L13.1818182,12.7272727 C13.4328567,12.7272727 13.6363636,12.9307797 13.6363636,13.1818182 L13.6363636,19.0909091 L9.09090909,19.0909091 Z M19.0909091,8.18181818 L19.0909091,18.6363636 C19.0909091,18.8874022 18.8874022,19.0909091 18.6363636,19.0909091 L14.5454545,19.0909091 L14.5454545,13.1818182 C14.5454545,12.4287026 13.9349337,11.8181818 13.1818182,11.8181818 L9.54545455,11.8181818 C8.79233898,11.8181818 8.18181818,12.4287026 8.18181818,13.1818182 L8.18181818,19.0909091 L4.09090909,19.0909091 C3.83987057,19.0909091 3.63636364,18.8874022 3.63636364,18.6363636 L3.63636364,8.18181818 L3.60636364,8.18181818 L11.3636364,1.07063636 L19.1208182,8.18181818 L19.0909091,8.18181818 Z" id="Shape"></path>
                </g>
            </g>
        </g>
    </g>
</svg>