<?xml version="1.0" encoding="UTF-8"?>
<svg width="20px" height="20px" viewBox="0 0 20 20" version="1.1" xmlns="http://www.w3.org/2000/svg" xmlns:xlink="http://www.w3.org/1999/xlink">
    <!-- Generator: Sketch 48.2 (47327) - http://www.bohemiancoding.com/sketch -->
    <title>Shape</title>
    <desc>Created with Sketch.</desc>
    <defs></defs>
    <g id="DevTest" stroke="none" stroke-width="1" fill="none" fill-rule="evenodd" transform="translate(-1140.000000, -3636.000000)">
        <g id="Footer" transform="translate(0.000000, 3305.000000)" fill="#FFFFFF">
            <path d="M1149.99998,332.801838 C1152.67011,332.801838 1152.98636,332.812 1154.04082,332.860111 C1155.01581,332.904609 1155.5453,333.067517 1155.89771,333.204426 C1156.36445,333.385832 1156.69761,333.602567 1157.04752,333.952479 C1157.39743,334.302391 1157.61417,334.635552 1157.79553,335.102286 C1157.93248,335.454699 1158.09539,335.984191 1158.13989,336.959142 C1158.188,338.013641 1158.19816,338.329892 1158.19816,341.00002 C1158.19816,343.670148 1158.188,343.986398 1158.13989,345.040858 C1158.09539,346.015848 1157.93248,346.545341 1157.79553,346.897753 C1157.61417,347.364488 1157.39743,347.697649 1157.04752,348.047561 C1156.69761,348.397473 1156.36445,348.614208 1155.89771,348.795574 C1155.5453,348.932522 1155.01581,349.095431 1154.04082,349.139929 C1152.98652,349.188039 1152.67027,349.198201 1149.99998,349.198201 C1147.32969,349.198201 1147.01344,349.188039 1145.95914,349.139929 C1144.98415,349.095431 1144.45466,348.932522 1144.10229,348.795574 C1143.63551,348.614208 1143.30235,348.397473 1142.95244,348.047561 C1142.60253,347.697649 1142.38579,347.364488 1142.20443,346.897753 C1142.06748,346.545341 1141.90457,346.015848 1141.86007,345.040898 C1141.81196,343.986398 1141.8018,343.670148 1141.8018,341.00002 C1141.8018,338.329892 1141.81196,338.013641 1141.86007,336.959182 C1141.90457,335.984191 1142.06748,335.454699 1142.20443,335.102286 C1142.38579,334.635552 1142.60253,334.302391 1142.95244,333.952479 C1143.30235,333.602567 1143.63551,333.385832 1144.10229,333.204426 C1144.45466,333.067517 1144.98415,332.904609 1145.9591,332.860111 C1147.0136,332.812 1147.32985,332.801838 1149.99998,332.801838 M1149.99998,331 C1152.71584,331 1153.05638,331.011512 1154.12295,331.060178 C1155.18737,331.108764 1155.91427,331.277786 1156.55038,331.525007 C1157.20797,331.780564 1157.76564,332.122497 1158.32157,332.678426 C1158.8775,333.234356 1159.21944,333.792032 1159.47499,334.44962 C1159.72221,335.085733 1159.89124,335.812629 1159.93982,336.877052 C1159.98849,337.943619 1160,338.284163 1160,341.00002 C1160,343.715877 1159.98849,344.056421 1159.93982,345.122987 C1159.89124,346.18741 1159.72221,346.914306 1159.47499,347.55042 C1159.21944,348.208008 1158.8775,348.765684 1158.32157,349.321613 C1157.76564,349.877543 1157.20797,350.219476 1156.55038,350.475033 C1155.91427,350.722254 1155.18737,350.891275 1154.12295,350.939862 C1153.05638,350.988528 1152.71584,351 1149.99998,351 C1147.28412,351 1146.94362,350.988528 1145.87701,350.939862 C1144.81259,350.891275 1144.08569,350.722254 1143.44958,350.475033 C1142.79199,350.219476 1142.23432,349.877543 1141.67839,349.321613 C1141.12246,348.765684 1140.78052,348.207968 1140.52497,347.55042 C1140.27775,346.914306 1140.10872,346.18741 1140.06014,345.122987 C1140.01147,344.056421 1140,343.715877 1140,341.00002 C1140,338.284163 1140.01147,337.943619 1140.06014,336.877052 C1140.10872,335.812629 1140.27775,335.085733 1140.52497,334.44962 C1140.78052,333.792032 1141.12246,333.234356 1141.67839,332.678426 C1142.23432,332.122497 1142.79199,331.780564 1143.44958,331.525007 C1144.08569,331.277786 1144.81259,331.108764 1145.87701,331.060178 C1146.94362,331.011512 1147.28412,331 1149.99998,331 Z M1150.01984,335.880952 C1147.18172,335.880952 1144.88095,338.181724 1144.88095,341.019841 C1144.88095,343.857959 1147.18172,346.15873 1150.01984,346.15873 C1152.85796,346.15873 1155.15873,343.857959 1155.15873,341.019841 C1155.15873,338.181724 1152.85796,335.880952 1150.01984,335.880952 Z M1150.01984,344.35562 C1148.17756,344.35562 1146.68406,342.862119 1146.68406,341.019841 C1146.68406,339.177564 1148.17756,337.684062 1150.01984,337.684062 C1151.86212,337.684062 1153.35562,339.177564 1153.35562,341.019841 C1153.35562,342.862119 1151.86212,344.35562 1150.01984,344.35562 Z M1156.50794,335.642837 C1156.50794,334.985349 1155.97497,334.452381 1155.31748,334.452381 C1154.65999,334.452381 1154.12698,334.985349 1154.12698,335.642837 C1154.12698,336.300325 1154.65999,336.833333 1155.31748,336.833333 C1155.97497,336.833333 1156.50794,336.300325 1156.50794,335.642837 Z" id="Shape"></path>
        </g>
    </g>
</svg>