<?xml version="1.0" encoding="UTF-8"?>
<svg width="29px" height="42px" viewBox="0 0 29 42" version="1.1" xmlns="http://www.w3.org/2000/svg" xmlns:xlink="http://www.w3.org/1999/xlink">
    <!-- Generator: Sketch 48.2 (47327) - http://www.bohemiancoding.com/sketch -->
    <title>location-pin</title>
    <desc>Created with Sketch.</desc>
    <defs></defs>
    <g id="DevTest" stroke="none" stroke-width="1" fill="none" fill-rule="evenodd" transform="translate(-626.000000, -2285.000000)">
        <g id="location-pin" transform="translate(626.000000, 2285.000000)" fill="#68C242" fill-rule="nonzero">
            <path d="M14.2800035,0 C6.39337534,1.26826654e-15 1.49214011e-15,6.39337534 0,14.2800035 C0,22.6411975 8.37211405,35.9462968 12.294915,41.021242 C12.7694865,41.6378485 13.5032717,41.9993921 14.2813599,41.9999841 C15.0594482,42.0005762 15.7937827,41.6401496 16.269292,41.0242661 C20.1944449,35.9625928 28.560007,22.6915976 28.560007,14.2800035 C28.560007,10.4927111 27.0555109,6.86053633 24.3774908,4.18251619 C21.6994707,1.50449605 18.0672959,-6.09043069e-16 14.2800035,0 Z M14.2800035,18.4800045 C11.0325684,18.4800045 8.40000206,15.8474382 8.40000206,12.6000031 C8.40000206,9.35256796 11.0325684,6.72000165 14.2800035,6.72000165 C17.5274386,6.72000165 20.1600049,9.35256796 20.1600049,12.6000031 C20.1600049,15.8474382 17.5274386,18.4800045 14.2800035,18.4800045 Z" id="Shape"></path>
        </g>
    </g>
</svg>