<?xml version="1.0" encoding="UTF-8"?>
<svg width="19px" height="20px" viewBox="0 0 19 20" version="1.1" xmlns="http://www.w3.org/2000/svg" xmlns:xlink="http://www.w3.org/1999/xlink">
    <!-- Generator: Sketch 48.2 (47327) - http://www.bohemiancoding.com/sketch -->
    <title>song-notes</title>
    <desc>Created with Sketch.</desc>
    <defs></defs>
    <g id="DevTest" stroke="none" stroke-width="1" fill="none" fill-rule="evenodd" transform="translate(-612.000000, -32.000000)">
        <g id="Group-3" transform="translate(321.000000, 8.000000)" fill="#001D5D" fill-rule="nonzero">
            <g id="music-copy" transform="translate(291.000000, 23.000000)">
                <g id="song-notes" transform="translate(0.000000, 1.000000)">
                    <path d="M3.84615385,16.9230769 C2.56014326,16.9665483 1.38572739,16.1966415 0.912692308,15 C0.82230131,15.2466136 0.773811323,15.5066135 0.769230769,15.7692308 C0.884275478,17.3579744 2.25619851,18.558407 3.84615385,18.4615385 C5.43610918,18.558407 6.80803221,17.3579744 6.92307692,15.7692308 C6.91849637,15.5066135 6.87000638,15.2466136 6.77961538,15 C6.30658031,16.1966415 5.13216443,16.9665483 3.84615385,16.9230769 Z" id="Shape" fill-opacity="0.25"></path>
                    <path d="M14.6153846,13.8461538 C13.329374,13.8896252 12.1549582,13.1197184 11.6819231,11.9230769 C11.5915321,12.1696905 11.5430421,12.4296904 11.5384615,12.6923077 C11.6535062,14.2810513 13.0254293,15.4814839 14.6153846,15.3846154 C16.2053399,15.4814839 17.577263,14.2810513 17.6923077,12.6923077 C17.6877271,12.4296904 17.6392372,12.1696905 17.5488462,11.9230769 C17.0758111,13.1197184 15.9013952,13.8896252 14.6153846,13.8461538 Z" id="Shape" fill-opacity="0.25"></path>
                    <path d="M18.3083077,0.0781538462 C18.2123966,0.0044370399 18.0869324,-0.0187674027 17.971,0.0157692308 L7.20176923,3.09269231 C7.03682856,3.1399442 6.9231335,3.29073216 6.92307692,3.46230769 L6.92307692,13.7113077 C6.15718109,12.8091739 5.02948571,12.2947474 3.84615385,12.3076923 C1.83024343,12.2072726 0.111750042,13.7539167 1.77635684e-15,15.7692308 C0.111750042,17.7845448 1.83024343,19.3311889 3.84615385,19.2307692 C5.86138313,19.3312115 7.57958285,17.7856565 7.69230769,15.7710769 L7.69230769,15.7699231 L7.69230769,6.82915385 L17.6923077,3.972 L17.6923077,10.6343846 C16.9264119,9.73225079 15.7987165,9.21782435 14.6153846,9.23076923 C12.5994742,9.13034956 10.8809808,10.6769936 10.7692308,12.6923077 C10.8809808,14.7076218 12.5994742,16.2542658 14.6153846,16.1538462 C16.6306139,16.2542884 18.3488136,14.7087334 18.4615385,12.6941538 L18.4615385,12.693 L18.4615385,0.385307692 C18.4616838,0.264504974 18.4049064,0.15069359 18.3083077,0.0781538462 Z M3.84615385,18.4615385 C2.25619851,18.558407 0.884275478,17.3579744 0.769230769,15.7692308 C0.884275478,14.1804872 2.25619851,12.9800545 3.84615385,13.0769231 C5.43610918,12.9800545 6.80803221,14.1804872 6.92307692,15.7692308 C6.80803221,17.3579744 5.43610918,18.558407 3.84615385,18.4615385 Z M14.6153846,15.3846154 C13.0254293,15.4814839 11.6535062,14.2810513 11.5384615,12.6923077 C11.6535062,11.1035641 13.0254293,9.90313145 14.6153846,10 C16.2053399,9.90313145 17.577263,11.1035641 17.6923077,12.6923077 C17.577263,14.2810513 16.2053399,15.4814839 14.6153846,15.3846154 Z M7.69230769,6.02953846 L7.69230769,3.75261538 L17.6923077,0.895461538 L17.6923077,3.17238462 L7.69230769,6.02953846 Z" id="Shape"></path>
                </g>
            </g>
        </g>
    </g>
</svg>