<?xml version="1.0" encoding="UTF-8"?>
<svg width="20px" height="20px" viewBox="0 0 20 20" version="1.1" xmlns="http://www.w3.org/2000/svg" xmlns:xlink="http://www.w3.org/1999/xlink">
    <!-- Generator: Sketch 48.2 (47327) - http://www.bohemiancoding.com/sketch -->
    <title>vynil</title>
    <desc>Created with Sketch.</desc>
    <defs></defs>
    <g id="DevTest" stroke="none" stroke-width="1" fill="none" fill-rule="evenodd" transform="translate(-460.000000, -30.000000)">
        <g id="Group-3" transform="translate(321.000000, 8.000000)" fill="#001D5D" fill-rule="nonzero">
            <g id="vinyl-copy" transform="translate(139.000000, 22.000000)">
                <g id="vynil">
                    <path d="M11.67088,0.95896 C15.8011623,2.9807837 17.8007308,7.74463725 16.3508335,12.1086722 C14.9009362,16.4727072 10.4481292,19.0928378 5.92912,18.24104 C9.14705261,19.8332191 12.9974124,19.4065325 15.7886672,17.1484311 C18.5799219,14.8903298 19.8013406,11.2139908 18.9163321,7.73449595 C18.0313237,4.25500107 15.2018227,1.60901228 11.67088,0.95896 Z" id="Shape" fill-opacity="0.25"></path>
                    <path d="M10,0 C4.4771525,-3.38176876e-16 6.76353751e-16,4.4771525 0,10 C-6.76353751e-16,15.5228475 4.4771525,20 10,20 C15.5228475,20 20,15.5228475 20,10 C20,7.3478351 18.9464316,4.80429597 17.0710678,2.92893219 C15.195704,1.0535684 12.6521649,1.62398263e-16 10,0 Z M10,19.2 C4.9189803,19.2 0.8,15.0810197 0.8,10 C0.8,4.9189803 4.9189803,0.8 10,0.8 C15.0810197,0.8 19.2,4.9189803 19.2,10 C19.1943126,15.078662 15.078662,19.1943126 10,19.2 Z" id="Shape"></path>
                    <path d="M12,10 C12,8.8954305 11.1045695,8 10,8 C8.8954305,8 8,8.8954305 8,10 C8,11.1045695 8.8954305,12 10,12 C11.1045695,12 12,11.1045695 12,10 Z M8.8,10 C8.8,9.3372583 9.3372583,8.8 10,8.8 C10.6627417,8.8 11.2,9.3372583 11.2,10 C11.2,10.6627417 10.6627417,11.2 10,11.2 C9.33756899,11.1992505 8.80074948,10.662431 8.8,10 Z" id="Shape"></path>
                    <path d="M10.4,5.2 C10.4,4.9790861 10.2209139,4.8 10,4.8 C7.12948998,4.80330641 4.80330641,7.12948998 4.8,10 C4.8,10.2209139 4.9790861,10.4 5.2,10.4 C5.4209139,10.4 5.6,10.2209139 5.6,10 C5.6028654,7.57113498 7.57113498,5.6028654 10,5.6 C10.2209139,5.6 10.4,5.4209139 10.4,5.2 Z" id="Shape"></path>
                    <path d="M9.6,14.8 C9.6,15.0209139 9.7790861,15.2 10,15.2 C12.87051,15.1966936 15.1966936,12.87051 15.2,10 C15.2,9.7790861 15.0209139,9.6 14.8,9.6 C14.5790861,9.6 14.4,9.7790861 14.4,10 C14.3971346,12.428865 12.428865,14.3971346 10,14.4 C9.7790861,14.4 9.6,14.5790861 9.6,14.8 Z" id="Shape"></path>
                    <path d="M10,3.2 C10.2209139,3.2 10.4,3.0209139 10.4,2.8 C10.4,2.5790861 10.2209139,2.4 10,2.4 C5.80460971,2.40476138 2.40476138,5.80460971 2.4,10 C2.4,10.2209139 2.5790861,10.4 2.8,10.4 C3.0209139,10.4 3.2,10.2209139 3.2,10 C3.20440835,6.24629122 6.24629122,3.20440835 10,3.2 Z" id="Shape"></path>
                    <path d="M17.2,9.6 C16.9790861,9.6 16.8,9.7790861 16.8,10 C16.7955916,13.7537088 13.7537088,16.7955916 10,16.8 C9.7790861,16.8 9.6,16.9790861 9.6,17.2 C9.6,17.4209139 9.7790861,17.6 10,17.6 C14.1953903,17.5952386 17.5952386,14.1953903 17.6,10 C17.6,9.7790861 17.4209139,9.6 17.2,9.6 Z" id="Shape"></path>
                </g>
            </g>
        </g>
    </g>
</svg>