<?xml version="1.0" encoding="UTF-8"?>
<svg width="22px" height="20px" viewBox="0 0 22 20" version="1.1" xmlns="http://www.w3.org/2000/svg" xmlns:xlink="http://www.w3.org/1999/xlink">
    <!-- Generator: Sketch 48.2 (47327) - http://www.bohemiancoding.com/sketch -->
    <title>Shape</title>
    <desc>Created with Sketch.</desc>
    <defs></defs>
    <g id="DevTest" stroke="none" stroke-width="1" fill="none" fill-rule="evenodd" transform="translate(-1182.000000, -3636.000000)">
        <g id="Footer" transform="translate(0.000000, 3305.000000)" fill="#FFFFFF">
            <path d="M1192.45194,331.003859 C1191.97836,331.003859 1191.03081,331.070561 1190.01298,331.518513 C1189.43104,331.774461 1188.90759,332.120541 1188.45722,332.547159 C1187.92028,333.055473 1187.48286,333.682197 1187.15733,334.410188 C1186.6806,335.476099 1186.79377,337.271489 1186.88466,338.714294 C1186.89472,338.871072 1186.90495,339.032425 1186.91429,339.189644 C1186.84435,339.221672 1186.73096,339.255464 1186.56383,339.255464 C1186.29492,339.255464 1185.97514,339.169743 1185.61362,339.000838 C1185.50725,338.951445 1185.38584,338.926473 1185.25188,338.926473 C1185.03665,338.926473 1184.80976,338.989647 1184.61294,339.105026 C1184.36531,339.250006 1184.20531,339.454909 1184.16186,339.682082 C1184.13322,339.832354 1184.1346,340.129372 1184.46549,340.430579 C1184.64749,340.596397 1184.91486,340.749316 1185.25996,340.885311 C1185.35052,340.920867 1185.45799,340.954824 1185.57183,340.990822 C1185.96685,341.116012 1186.56472,341.305148 1186.72062,341.671018 C1186.79963,341.856516 1186.76563,342.100613 1186.61984,342.395646 C1186.57229,342.504684 1186.23239,343.272365 1185.53517,344.081997 C1185.13899,344.542407 1184.70261,344.927184 1184.23887,345.225966 C1183.67285,345.590733 1183.06039,345.829207 1182.41868,345.934607 C1182.16668,345.975841 1181.98673,346.199707 1182.00077,346.454112 C1182.00508,346.527429 1182.02233,346.600526 1182.05224,346.671252 C1182.15485,346.910167 1182.39109,347.112038 1182.77516,347.290094 C1183.24449,347.507454 1183.94641,347.690306 1184.86123,347.833358 C1184.90745,347.921008 1184.95544,348.14129 1184.98867,348.292114 C1185.02344,348.45242 1185.05971,348.617246 1185.1114,348.792325 C1185.16719,348.982012 1185.31187,349.208689 1185.68356,349.208689 C1185.82443,349.208689 1185.98642,349.177047 1186.17401,349.140775 C1186.44872,349.087027 1186.8244,349.01371 1187.29328,349.01371 C1187.55324,349.01371 1187.82265,349.036532 1188.09383,349.081459 C1188.61656,349.168227 1189.0672,349.485641 1189.5886,349.853219 C1190.35178,350.391136 1191.21563,351 1192.53548,351 C1192.57147,351 1192.60757,350.998842 1192.64323,350.996362 C1192.68685,350.998401 1192.74092,351 1192.79798,351 C1194.11822,351 1194.98185,350.390916 1195.74419,349.85344 C1196.26692,349.4852 1196.71707,349.168227 1197.23963,349.081459 C1197.5107,349.036587 1197.78006,349.01371 1198.04012,349.01371 C1198.48805,349.01371 1198.84272,349.070655 1199.1594,349.13223 C1199.36606,349.172803 1199.52666,349.192317 1199.6499,349.192317 C1199.94629,349.192538 1200.14604,349.043753 1200.22228,348.783394 C1200.27292,348.612009 1200.30908,348.451041 1200.34474,348.288035 C1200.37581,348.146692 1200.42546,347.920126 1200.47168,347.831539 C1201.38711,347.688212 1202.08875,347.505745 1202.55813,347.28844 C1202.94132,347.111211 1203.17728,346.909561 1203.27978,346.672906 C1203.31052,346.601959 1203.32849,346.528421 1203.33252,346.453561 C1203.34695,346.199596 1203.16672,345.97529 1202.91456,345.934056 C1200.06261,345.465377 1198.77781,342.543493 1198.72468,342.41935 C1198.56756,342.100061 1198.53389,341.85624 1198.61295,341.670412 C1198.76852,341.304873 1199.366,341.115736 1199.7613,340.990601 C1199.87574,340.954659 1199.98361,340.920481 1200.07345,340.88509 C1200.46261,340.731841 1200.74075,340.565582 1200.92425,340.376776 C1201.1434,340.151698 1201.18609,339.936046 1201.18343,339.794924 C1201.17674,339.453475 1200.91496,339.150063 1200.49854,339.001499 C1200.3579,338.943507 1200.19751,338.912912 1200.03419,338.912912 C1199.92301,338.912912 1199.75837,338.928127 1199.60252,339.000673 C1199.26886,339.156348 1198.96999,339.241462 1198.7134,339.253589 C1198.57696,339.246699 1198.48125,339.217206 1198.41928,339.189037 C1198.42707,339.055853 1198.4357,338.919031 1198.4446,338.776366 L1198.4483,338.715287 C1198.53969,337.271544 1198.65325,335.474776 1198.17629,334.408093 C1197.84939,333.677512 1197.41041,333.049189 1196.87131,332.539772 C1196.41918,332.112878 1195.89396,331.766854 1195.30992,331.511071 C1194.29353,331.066427 1193.34603,331 1192.87179,331 C1192.6873,331.001544 1192.47135,331.003638 1192.45194,331.003859 Z" id="Shape"></path>
        </g>
    </g>
</svg>