<?xml version="1.0" encoding="UTF-8"?>
<svg width="21px" height="18px" viewBox="0 0 21 18" version="1.1" xmlns="http://www.w3.org/2000/svg" xmlns:xlink="http://www.w3.org/1999/xlink">
    <!-- Generator: Sketch 48.2 (47327) - http://www.bohemiancoding.com/sketch -->
    <title>Shape</title>
    <desc>Created with Sketch.</desc>
    <defs></defs>
    <g id="DevTest" stroke="none" stroke-width="1" fill="none" fill-rule="evenodd" transform="translate(-1097.000000, -3638.000000)">
        <g id="Footer" transform="translate(0.000000, 3305.000000)" fill="#FFFFFF">
            <path d="M1115.52615,335.845732 C1116.41609,335.284125 1117.09896,334.393615 1117.41944,333.332804 C1116.58619,333.854109 1115.66543,334.231114 1114.68304,334.435216 C1113.8991,333.551206 1112.77866,333 1111.53865,333 C1109.15971,333 1107.23191,335.034523 1107.23191,337.54355 C1107.23191,337.899754 1107.26765,338.246858 1107.34161,338.578362 C1103.76211,338.38856 1100.58813,336.58154 1098.46188,333.830709 C1098.09086,334.504117 1097.87885,335.284125 1097.87885,336.116135 C1097.87885,337.691752 1098.63937,339.082768 1099.79556,339.899177 C1099.08928,339.875776 1098.4249,339.669074 1097.84311,339.33107 L1097.84311,339.386971 C1097.84311,341.589195 1099.32717,343.426116 1101.30058,343.84212 C1100.93819,343.948722 1100.55855,344.002022 1100.16411,344.002022 C1099.88678,344.002022 1099.6156,343.974722 1099.35429,343.921421 C1099.90157,345.725841 1101.49287,347.041456 1103.37876,347.076556 C1101.90333,348.29597 1100.04578,349.021378 1098.028,349.021378 C1097.6804,349.021378 1097.3365,349.001878 1097,348.958977 C1098.90685,350.247292 1101.17116,351 1103.60433,351 C1111.53002,351 1115.86142,344.076123 1115.86142,338.071356 C1115.86142,337.873754 1115.85895,337.677452 1115.85033,337.48375 C1116.6922,336.842843 1117.42437,336.042034 1118,335.130724 C1117.22715,335.492128 1116.39637,335.73653 1115.52615,335.845732 Z" id="Shape"></path>
        </g>
    </g>
</svg>